<svg xmlns="http://www.w3.org/2000/svg" width="13.32" height="16.969" viewBox="0 0 13.32 16.969">
  <path id="fire" d="M67.4,6.108a13.214,13.214,0,0,0-2.1-3.154.5.5,0,0,0-.711-.034L62.251,5.1V.531a.548.548,0,0,0-.807-.46,15.328,15.328,0,0,0-5.39,5.916,9.9,9.9,0,0,0-1.012,4.308A6.674,6.674,0,0,0,61.7,16.969C66.314,16.969,70.241,12.2,67.4,6.108Zm-7.24,8.324A3.551,3.551,0,0,1,61.7,11.821a3.75,3.75,0,0,1,1.535,2.612,1.536,1.536,0,1,1-3.072,0ZM64,15.481c.76-1.67-.5-3.689-2.018-4.691a.5.5,0,0,0-.528-.012c-1.584.947-2.822,3.029-2.06,4.7a5.686,5.686,0,0,1-3.361-5.187c0-3.614,2.353-6.761,5.22-8.886v4.84a.5.5,0,0,0,.836.365L64.888,4a9.809,9.809,0,0,1,2.476,6.291A5.686,5.686,0,0,1,64,15.481Z" transform="translate(-55.042 0)"/>
</svg>
