<svg id="lactose-free" xmlns="http://www.w3.org/2000/svg" width="27.764" height="27.764" viewBox="0 0 27.764 27.764">
  <path id="Path_30" data-name="Path 30" d="M139.658,3.431c-.24.216-.505.409-.723.645L140.16,5.3A7.773,7.773,0,0,1,141.4,4.186l1.006-.715h5.3l1.006.716A7.821,7.821,0,0,1,152,10.55v6.593l1.735,1.735V10.55a9.558,9.558,0,0,0-3.212-7.131A1.716,1.716,0,0,0,152,1.735,1.737,1.737,0,0,0,150.266,0H139.854a1.737,1.737,0,0,0-1.735,1.735,1.719,1.719,0,0,0,1.539,1.7Z" transform="translate(-131.178 0)" fill="#23192D"/>
  <path id="Path_31" data-name="Path 31" d="M27.764,26.538,1.227,0,0,1.228,5.868,7.1a9.441,9.441,0,0,0-.663,3.454V25.162a2.606,2.606,0,0,0,2.6,2.6H19.955a2.606,2.606,0,0,0,2.6-2.6V23.786l3.979,3.979,1.227-1.227Zm-6.941-1.376a.869.869,0,0,1-.868.868H7.809a.869.869,0,0,1-.868-.868V10.551a7.564,7.564,0,0,1,.321-2.061L20.823,22.051s0,3.111,0,3.111Z" transform="translate(0 -0.001)" fill="#23192D"/>
</svg>
