<svg id="gluten-free" xmlns="http://www.w3.org/2000/svg" width="25.769" height="25.769" viewBox="0 0 25.769 25.769">
  <path id="Path_27" data-name="Path 27" d="M189.175,9.165a8.056,8.056,0,0,1,5.637-2.722v6.442a9.787,9.787,0,0,0-2.565.461l1.316,1.316a7.277,7.277,0,0,1,1.249-.166,6.375,6.375,0,0,1-.136,1.28l1.288,1.288a7.949,7.949,0,0,0,.458-2.568V2.416a.805.805,0,1,0-1.611,0V4.832A9.886,9.886,0,0,0,189.175,6.9V.805a.805.805,0,0,0-1.611,0V6.9a9.419,9.419,0,0,0-3.494-1.731l5.1,5.1Z" transform="translate(-175.485 0)" fill="#23192D"/>
  <path id="Path_28" data-name="Path 28" d="M112.4,35.335a.8.8,0,0,0-.805-.805.785.785,0,0,0-.453.157l1.258,1.258S112.4,35.335,112.4,35.335Z" transform="translate(-105.956 -32.919)" fill="#23192D"/>
  <path id="Path_29" data-name="Path 29" d="M25.769,24.632,1.139,0,0,1.14,4.832,5.971V14.5a8.036,8.036,0,0,0,7.248,7.971v3.3H13.69V22.5a8,8,0,0,0,5.094-2.576l5.846,5.846,1.139-1.139ZM12.079,13.219v1.735a9.886,9.886,0,0,0-5.637-2.069v-5.3ZM6.442,14.5a8.057,8.057,0,0,1,5.637,2.722v3.639A6.43,6.43,0,0,1,6.442,14.5Zm7.248,6.361V17.219a6.451,6.451,0,0,1,1.241-1.147l2.689,2.689A6.387,6.387,0,0,1,13.69,20.857Z" transform="translate(0 -0.001)" fill="#23192D"/>
</svg>
