<svg xmlns="http://www.w3.org/2000/svg" width="237.514" height="225.3" viewBox="0 0 237.514 225.3">
  <g id="Group_148" data-name="Group 148" transform="translate(-319.978 -367.7)">
    <path id="Path_1" data-name="Path 1" d="M27.195,25.875A25.708,25.708,0,0,0,28.113,36.1c-19.865,6.03-31.955,26.78-27,46.346a34.345,34.345,0,0,0,19.033,22.935,27.308,27.308,0,0,0-3.244,9.955,26.639,26.639,0,0,0,25.865,29.3,31.155,31.155,0,0,0,13.06-2.121L79.046,84.569l.87-46.887L71.815,3.8A29.039,29.039,0,0,0,59.42.115C43.887-1.284,29.466,10.244,27.195,25.875Z" transform="translate(429.166 367.7) rotate(49)" fill="#F5ECB7"/>
    <path id="Path_2" data-name="Path 2" d="M199.683,34.024C199.73,15.313,183.615.08,163.691,0c-13.264-.053-25.475,6.733-31.8,17.671C87.157-3.706,32.51,12.988,9.832,54.957s-4.795,93.321,39.94,114.7,99.383,4.683,122.06-37.286a80.552,80.552,0,0,0,4.708-66.738c13.94-5.015,23.138-17.578,23.142-31.606Z" transform="translate(354.717 414.064) rotate(-1)" fill="#fff"/>
    <path id="Path_18" data-name="Path 18" d="M40.738,0C63.259.021,81.533,17.757,81.554,39.614S63.337,79.173,40.816,79.152.022,61.395,0,39.538,18.217-.021,40.738,0Z" transform="translate(406.502 471.738) rotate(-1)" fill="#fabc3c"/>
    <g id="Group_1" data-name="Group 1" transform="translate(451.759 395.36) rotate(69)">
      <path id="Path_16" data-name="Path 16" d="M23.129,0C35.663-.233,45.633,10.163,45.4,23.223S34.807,47.062,22.272,47.3-.232,37.14,0,24.08,10.594.24,23.129,0Z" transform="translate(0 36.735)" fill="#f57576"/>
      <path id="Path_17" data-name="Path 17" d="M23.545,0C36.308-.237,46.46,10.266,46.221,23.462S35.442,47.551,22.68,47.792-.235,37.53,0,24.334,10.783.245,23.545,0Z" transform="translate(9.211 0)" fill="#f57576"/>
    </g>
  </g>
</svg>
