<svg xmlns="http://www.w3.org/2000/svg" width="512.006" height="512" viewBox="0 0 512.006 512">
  <g id="search" transform="translate(0 -0.003)">
    <g id="Group_151" data-name="Group 151">
      <path id="Path_53" data-name="Path 53" d="M505.749,475.587l-145.6-145.6A201.683,201.683,0,0,0,405.333,202.67C405.333,90.926,314.41,0,202.666,0S0,90.925,0,202.669,90.923,405.336,202.667,405.336a201.683,201.683,0,0,0,127.317-45.184l145.6,145.6a21.33,21.33,0,1,0,30.165-30.165ZM202.667,362.669c-88.235,0-160-71.765-160-160s71.765-160,160-160,160,71.765,160,160S290.9,362.669,202.667,362.669Z" fill="#fff"/>
    </g>
  </g>
</svg>
