<svg xmlns="http://www.w3.org/2000/svg" width="18.115" height="18.115" viewBox="0 0 18.115 18.115">
  <g id="Time" transform="translate(-1.901 -1.901)">
    <path id="Path_36" data-name="Path 36" d="M29,10h.6v.6H29Z" transform="translate(-18.931 -5.658)"/>
    <path id="Path_37" data-name="Path 37" d="M0,0H.6V.6H0Z" transform="translate(5.894 6.321) rotate(-45)"/>
    <path id="Path_38" data-name="Path 38" d="M10,29h.6v.6H10Z" transform="translate(-5.658 -18.931)"/>
    <path id="Path_39" data-name="Path 39" d="M0,0H.6V.6H0Z" transform="translate(5.893 14.419) rotate(-45)"/>
    <path id="Path_40" data-name="Path 40" d="M29,48h.6v.6H29Z" transform="translate(-18.931 -32.205)"/>
    <path id="Path_41" data-name="Path 41" d="M48,29h.6v.6H48Z" transform="translate(-32.205 -18.931)"/>
    <path id="Path_42" data-name="Path 42" d="M0,0H.6V.6H0Z" transform="translate(13.992 6.322) rotate(-45)"/>
    <path id="Path_43" data-name="Path 43" d="M21.22,18.544V15h-.6v3.544l-.676.676H17v.6h2.941l.764.764a.3.3,0,0,0,.426,0l.853-.853a.3.3,0,0,0,0-.426Zm-.3,1.4-.426-.426.426-.426.426.426Z" transform="translate(-10.548 -9.151)"/>
    <path id="Path_44" data-name="Path 44" d="M18.513,12.573a8.454,8.454,0,1,0-5.941,5.941,4.216,4.216,0,1,0,5.941-5.941ZM10.37,18.207a7.849,7.849,0,1,1,7.618-6.01,4.21,4.21,0,0,0-.552-.289,7.245,7.245,0,1,0-5.529,5.528,4.211,4.211,0,0,0,.289.552,7.859,7.859,0,0,1-1.826.219ZM11.576,15.8a4.2,4.2,0,0,0,.142,1.066,6.637,6.637,0,1,1,5.144-5.144A4.2,4.2,0,0,0,11.576,15.8Zm4.22,3.617A3.617,3.617,0,1,1,19.412,15.8,3.617,3.617,0,0,1,15.8,19.412Z" transform="translate(0)"/>
    <path id="Path_45" data-name="Path 45" d="M44.028,42.713H43.4a2.414,2.414,0,0,0-1.8-2.032.6.6,0,1,0-1.19,0,2.414,2.414,0,0,0-1.8,2.032H38v.6h.417l.519,1.039a.3.3,0,0,0,.27.167h3.617a.3.3,0,0,0,.271-.167l.518-1.039h.417Zm-3.014-1.507A1.81,1.81,0,0,1,42.8,42.713H39.233A1.81,1.81,0,0,1,41.014,41.206Zm1.622,2.713H39.392l-.3-.6h3.847Z" transform="translate(-25.219 -26.616)"/>
  </g>
</svg>
