<svg xmlns="http://www.w3.org/2000/svg" width="32.129" height="42.84" viewBox="0 0 32.129 42.84">
  <g id="sort" transform="translate(-14 -8)">
    <path id="Path_32" data-name="Path 32" d="M29.542,14.771,23.295,8.523a1.785,1.785,0,0,0-2.524,0l-6.248,6.248a1.785,1.785,0,1,0,2.524,2.524l3.2-3.2V49.055a1.785,1.785,0,0,0,3.57,0V14.094l3.2,3.2a1.785,1.785,0,0,0,2.524-2.524Z" transform="translate(0 0)" fill="#ffffff"/>
    <path id="Path_33" data-name="Path 33" d="M47.542,41.546a1.785,1.785,0,0,0-2.524,0l-3.2,3.2V9.785a1.785,1.785,0,0,0-3.57,0V44.746l-3.2-3.2a1.785,1.785,0,1,0-2.524,2.524l6.248,6.248a1.784,1.784,0,0,0,2.524,0l6.248-6.248a1.785,1.785,0,0,0,0-2.524Z" transform="translate(-1.935 0)" fill="#ffffff"/>
  </g>
</svg>
