<svg xmlns="http://www.w3.org/2000/svg" width="512" height="318.865" viewBox="0 0 512 318.865">
  <g id="vegan" transform="translate(0 -96.567)">
    <g id="Group_150" data-name="Group 150">
      <path id="Path_52" data-name="Path 52" d="M511.306,205.8a15.611,15.611,0,0,0-14.054-14.054c-4.172-.4-102.848-9.1-160.309,48.358a146.423,146.423,0,0,0-28.8,41.809c-11.523-47.184-32.019-86.331-60.158-114.469C213.3,132.768,161.9,109.694,99.336,100.723c-46.552-6.676-82.8-3.341-84.321-3.194A15.611,15.611,0,0,0,.961,111.583C.815,113.1-2.52,149.351,4.155,195.9,13.126,258.468,36.2,309.871,70.881,344.551s86.083,57.755,148.647,66.726a417.189,417.189,0,0,0,58.583,4.155c13.62,0,33.469-.267,42.607-.267,31.958,0,98.844-5.664,142.23-49.052C520.409,308.654,511.7,209.979,511.306,205.8ZM170.469,244.963a15.61,15.61,0,1,0-22.076,22.076L265.315,383.96c-45.052-1.517-122.77-11.894-172.359-61.483-59.1-59.1-62.448-158.663-61.569-194.54,35.878-.936,135.277,2.345,194.521,61.589,49.446,49.446,59.865,127.211,61.435,172.311Zm270.4,99.076c-27.516,27.516-68.915,36.323-98.664,38.885l68.774-68.775a15.61,15.61,0,1,0-22.076-22.076l-68.835,68.835c2.523-29.711,11.3-71.084,38.945-98.724,35.811-35.812,95.132-39.944,121.7-39.843C480.81,248.907,476.678,308.233,440.873,344.039Z" fill="#fff"/>
    </g>
  </g>
</svg>
