<svg xmlns="http://www.w3.org/2000/svg" width="440.347" height="511.992" viewBox="0 0 440.347 511.992">
  <g id="plant" transform="translate(-35.823 0)">
    <path id="Path_51" data-name="Path 51" d="M467.537,159.173l-10.7-53.485-29.8,11.928c-26.143,10.465-54.025,20.268-83.065,29.209-12.826-34.907-32.2-69.6-57.737-103.333L253.32,0,231.688,23.71C197.208,61.5,158.3,98.242,112.735,136.023A213.8,213.8,0,0,0,41.047,253.338a210.521,210.521,0,0,0,16.109,139L115.02,511.992h63.29c55.325,0,104.264-8.484,145.455-25.218,39.054-15.866,71.373-39.179,96.06-69.292,51.519-62.847,68.463-154.583,47.712-258.309Zm-51.072-5.322c-19.736,39.773-44.423,79.234-73.709,117.7A940.653,940.653,0,0,1,238.8,386.242a1003.779,1003.779,0,0,1-99.377,82.236V373.491a180.8,180.8,0,0,1,39.513-113.5,183.648,183.648,0,0,1,99.3-63.925c15.8-3.9,31.323-8,46.339-12.243l.026.081,13.714-4.043.391-.114h0c26.915-7.938,52.962-16.625,77.755-25.894ZM70.321,259.9a183.644,183.644,0,0,1,61.563-100.78c45.469-37.7,84.526-74.458,119.281-112.255L262.318,61.6c23.284,30.763,40.994,62.223,52.8,93.722-14.288,4.021-29.047,7.915-44.064,11.619a213.807,213.807,0,0,0-115.612,74.4,210.515,210.515,0,0,0-46.014,132.151v58.031L84.163,379.28A180.8,180.8,0,0,1,70.321,259.9Zm326.3,138.567c-21.476,26.2-49.787,46.558-84.149,60.517-37.589,15.27-82.728,23.012-134.164,23.012h-6.549a1048.705,1048.705,0,0,0,87.069-73.4A971.312,971.312,0,0,0,366.356,290.081a768.679,768.679,0,0,0,73.483-115.928c16.254,90.951,1.03,170.337-43.216,224.311Z" fill="#fff"/>
  </g>
</svg>
